<svg width="28" height="28" viewBox="0 0 28 28" fill="none" xmlns="http://www.w3.org/2000/svg">
<path d="M23.615 6.04995C21.8466 5.23852 19.9502 4.6407 17.9674 4.2983C17.9313 4.29169 17.8953 4.3082 17.8767 4.34123C17.6328 4.77501 17.3626 5.34091 17.1734 5.7857C15.0408 5.46643 12.9192 5.46643 10.8303 5.7857C10.6411 5.33102 10.3611 4.77501 10.1161 4.34123C10.0975 4.3093 10.0615 4.29279 10.0254 4.2983C8.04367 4.6396 6.1473 5.23743 4.37778 6.04995C4.36246 6.05656 4.34933 6.06758 4.34061 6.08188C0.743596 11.4557 -0.241778 16.6975 0.241613 21.8743C0.2438 21.8996 0.258018 21.9239 0.277703 21.9393C2.65091 23.6821 4.94977 24.7402 7.20594 25.4415C7.24205 25.4525 7.28031 25.4393 7.30329 25.4095C7.83699 24.6807 8.31273 23.9122 8.72063 23.1041C8.74471 23.0568 8.72173 23.0006 8.67253 22.9819C7.91792 22.6956 7.19938 22.3466 6.50819 21.9503C6.45352 21.9184 6.44915 21.8402 6.49944 21.8027C6.64489 21.6937 6.79038 21.5803 6.92927 21.4658C6.95439 21.4449 6.98941 21.4405 7.01895 21.4537C11.5597 23.5269 16.4757 23.5269 20.9629 21.4537C20.9924 21.4394 21.0275 21.4438 21.0537 21.4647C21.1926 21.5792 21.3381 21.6937 21.4846 21.8027C21.5349 21.8402 21.5316 21.9184 21.4769 21.9503C20.7858 22.3543 20.0672 22.6956 19.3115 22.9808C19.2623 22.9995 19.2404 23.0568 19.2645 23.1041C19.6812 23.9111 20.1569 24.6796 20.6807 25.4084C20.7026 25.4393 20.742 25.4525 20.7781 25.4415C23.0452 24.7402 25.344 23.6821 27.7173 21.9393C27.738 21.9239 27.7512 21.9007 27.7534 21.8754C28.3319 15.8905 26.7844 10.6917 23.6511 6.08297C23.6434 6.06758 23.6303 6.05656 23.615 6.04995ZM9.39873 18.7222C8.03164 18.7222 6.90519 17.4671 6.90519 15.9257C6.90519 14.3843 8.00979 13.1293 9.39873 13.1293C10.7986 13.1293 11.9141 14.3954 11.8922 15.9257C11.8922 17.4671 10.7876 18.7222 9.39873 18.7222ZM18.6181 18.7222C17.2511 18.7222 16.1246 17.4671 16.1246 15.9257C16.1246 14.3843 17.2292 13.1293 18.6181 13.1293C20.018 13.1293 21.1335 14.3954 21.1117 15.9257C21.1117 17.4671 20.018 18.7222 18.6181 18.7222Z" fill="white"/>
</svg>
