<svg width="20" height="20" viewBox="0 0 20 20" fill="none" xmlns="http://www.w3.org/2000/svg">
<g clip-path="url(#clip0_18_44)">
<path d="M10 1.8023C12.6717 1.8023 12.9853 1.81421 14.0413 1.86185C15.0179 1.90552 15.5459 2.06828 15.8992 2.20723C16.3676 2.38984 16.7011 2.60421 17.0504 2.95355C17.3998 3.3029 17.6181 3.63636 17.7968 4.1048C17.9317 4.45812 18.0985 4.98611 18.1421 5.96268C18.1898 7.01866 18.2017 7.33227 18.2017 10.004C18.2017 12.6757 18.1898 12.9893 18.1421 14.0453C18.0985 15.0218 17.9357 15.5498 17.7968 15.9031C17.6141 16.3716 17.3998 16.705 17.0504 17.0544C16.7011 17.4037 16.3676 17.6221 15.8992 17.8007C15.5459 17.9357 15.0179 18.1024 14.0413 18.1461C12.9853 18.1937 12.6717 18.2056 10 18.2056C7.32831 18.2056 7.01469 18.1937 5.95872 18.1461C4.98214 18.1024 4.45415 17.9397 4.10084 17.8007C3.6324 17.6181 3.29893 17.4037 2.94959 17.0544C2.60024 16.705 2.3819 16.3716 2.20326 15.9031C2.06828 15.5498 1.90155 15.0218 1.85788 14.0453C1.81024 12.9893 1.79833 12.6757 1.79833 10.004C1.79833 7.33227 1.81024 7.01866 1.85788 5.96268C1.90155 4.98611 2.06431 4.45812 2.20326 4.1048C2.38587 3.63636 2.60024 3.3029 2.94959 2.95355C3.29893 2.60421 3.6324 2.38587 4.10084 2.20723C4.45415 2.07225 4.98214 1.90552 5.95872 1.86185C7.01469 1.81024 7.33228 1.8023 10 1.8023ZM10 0C7.28464 0 6.94324 0.0119095 5.87535 0.0595474C4.81144 0.107185 4.08496 0.277888 3.44978 0.524018C2.79079 0.778087 2.23502 1.12346 1.67924 1.67924C1.12346 2.23501 0.782057 2.79476 0.524018 3.44978C0.277888 4.08495 0.107185 4.81143 0.0595475 5.87932C0.0119095 6.94323 0 7.28464 0 10C0 12.7154 0.0119095 13.0568 0.0595475 14.1247C0.107185 15.1886 0.277888 15.915 0.524018 16.5542C0.778087 17.2132 1.12346 17.769 1.67924 18.3247C2.23502 18.8805 2.79476 19.2219 3.44978 19.48C4.08496 19.7261 4.81144 19.8968 5.87932 19.9444C6.94721 19.9921 7.28464 20.004 10.004 20.004C12.7233 20.004 13.0607 19.9921 14.1286 19.9444C15.1925 19.8968 15.919 19.7261 16.5582 19.48C17.2172 19.2259 17.7729 18.8805 18.3287 18.3247C18.8845 17.769 19.2259 17.2092 19.4839 16.5542C19.7301 15.919 19.9008 15.1925 19.9484 14.1247C19.996 13.0568 20.008 12.7193 20.008 10C20.008 7.28067 19.996 6.94323 19.9484 5.87535C19.9008 4.81143 19.7301 4.08495 19.4839 3.44581C19.2299 2.78682 18.8845 2.23104 18.3287 1.67527C17.7729 1.11949 17.2132 0.778087 16.5582 0.520048C15.923 0.273918 15.1965 0.103216 14.1286 0.0555776C13.0568 0.0119095 12.7154 0 10 0Z" fill="white"/>
<path d="M10 1.8023C12.6717 1.8023 12.9853 1.81421 14.0413 1.86185C15.0179 1.90552 15.5459 2.06828 15.8992 2.20723C16.3676 2.38984 16.7011 2.60421 17.0504 2.95355C17.3998 3.3029 17.6181 3.63636 17.7968 4.1048C17.9317 4.45812 18.0985 4.98611 18.1421 5.96268C18.1898 7.01866 18.2017 7.33227 18.2017 10.004C18.2017 12.6757 18.1898 12.9893 18.1421 14.0453C18.0985 15.0218 17.9357 15.5498 17.7968 15.9031C17.6141 16.3716 17.3998 16.705 17.0504 17.0544C16.7011 17.4037 16.3676 17.6221 15.8992 17.8007C15.5459 17.9357 15.0179 18.1024 14.0413 18.1461C12.9853 18.1937 12.6717 18.2056 10 18.2056C7.32831 18.2056 7.01469 18.1937 5.95872 18.1461C4.98214 18.1024 4.45415 17.9397 4.10084 17.8007C3.6324 17.6181 3.29893 17.4037 2.94959 17.0544C2.60024 16.705 2.3819 16.3716 2.20326 15.9031C2.06828 15.5498 1.90155 15.0218 1.85788 14.0453C1.81024 12.9893 1.79833 12.6757 1.79833 10.004C1.79833 7.33227 1.81024 7.01866 1.85788 5.96268C1.90155 4.98611 2.06431 4.45812 2.20326 4.1048C2.38587 3.63636 2.60024 3.3029 2.94959 2.95355C3.29893 2.60421 3.6324 2.38587 4.10084 2.20723C4.45415 2.07225 4.98214 1.90552 5.95872 1.86185C7.01469 1.81024 7.33228 1.8023 10 1.8023Z" fill="white"/>
<path d="M10 4.86701C7.16554 4.86701 4.86304 7.16554 4.86304 10.004C4.86304 12.8424 7.16157 15.1409 10 15.1409C12.8384 15.1409 15.137 12.8424 15.137 10.004C15.137 7.16554 12.8384 4.86701 10 4.86701ZM10 13.3347C8.15799 13.3347 6.66534 11.842 6.66534 10C6.66534 8.158 8.15799 6.66534 10 6.66534C11.842 6.66534 13.3347 8.158 13.3347 10C13.3347 11.842 11.842 13.3347 10 13.3347Z" fill="#8242DC"/>
<path d="M15.3395 5.85947C16.0016 5.85947 16.5384 5.32271 16.5384 4.66058C16.5384 3.99845 16.0016 3.46169 15.3395 3.46169C14.6774 3.46169 14.1406 3.99845 14.1406 4.66058C14.1406 5.32271 14.6774 5.85947 15.3395 5.85947Z" fill="#8242DC"/>
</g>
<defs>
<clipPath id="clip0_18_44">
<rect width="20" height="20" fill="white"/>
</clipPath>
</defs>
</svg>
