<svg width="24" height="24" viewBox="0 0 24 24" fill="none" xmlns="http://www.w3.org/2000/svg">
<path d="M2.23874 16.2773H2.37365L2.50856 14.2998L2.37365 12.3223C2.38031 12.3017 2.38207 12.2797 2.37879 12.2583C2.3755 12.2368 2.36727 12.2165 2.35476 12.1989C2.34226 12.1813 2.32583 12.167 2.30684 12.1571C2.28784 12.1472 2.26682 12.1421 2.24549 12.1421C2.22416 12.1421 2.20313 12.1472 2.18414 12.1571C2.16514 12.167 2.14872 12.1813 2.13621 12.1989C2.1237 12.2165 2.11547 12.2368 2.11219 12.2583C2.1089 12.2797 2.11066 12.3017 2.11732 12.3223L1.96893 14.2998L2.10383 16.2773H2.23874ZM1.46977 15.6181V15.522L1.72609 14.341L1.46977 12.9677H1.33486L1.19995 14.341L1.33486 15.522C1.33486 15.6181 1.33486 15.6181 1.46977 15.6181ZM3.14262 11.9378C3.14262 11.8004 3.14262 11.8004 3.00772 11.8004V11.9378L2.75139 14.2998L3.00772 16.5382V16.6755C3.14262 16.6755 3.14262 16.6755 3.14262 16.5382L3.39895 14.2998L3.14262 11.9378ZM3.92509 16.7991C3.94333 16.8013 3.96182 16.7993 3.97918 16.7932C3.99653 16.7871 4.0123 16.777 4.02528 16.7638C4.03827 16.7506 4.04815 16.7345 4.05416 16.7169C4.06017 16.6992 4.06217 16.6804 4.06 16.6618L4.31632 14.2998L4.06 11.8004C4.06217 11.7819 4.06017 11.763 4.05416 11.7454C4.04815 11.7277 4.03827 11.7117 4.02528 11.6984C4.0123 11.6852 3.99653 11.6752 3.97918 11.6691C3.96182 11.6629 3.94333 11.6609 3.92509 11.6631L3.79018 11.8004L3.65527 14.2998L3.79018 16.6618L3.92509 16.7991ZM4.82897 16.7991C4.84721 16.8013 4.8657 16.7993 4.88306 16.7932C4.90042 16.7871 4.91618 16.777 4.92917 16.7638C4.94215 16.7506 4.95203 16.7345 4.95804 16.7169C4.96405 16.6992 4.96605 16.6804 4.96388 16.6618L5.2202 14.2998L4.96388 12.0614C4.96605 12.0428 4.96405 12.024 4.95804 12.0063C4.95203 11.9886 4.94215 11.9726 4.92917 11.9594C4.91618 11.9461 4.90042 11.9361 4.88306 11.93C4.8657 11.9239 4.84721 11.9218 4.82897 11.924C4.69406 11.924 4.69406 11.924 4.69406 12.0614L4.43774 14.2998L4.66708 16.6755C4.66708 16.7991 4.66708 16.7991 4.82897 16.7991ZM6.01616 14.2998L5.88125 10.6194C5.88342 10.6009 5.88143 10.582 5.87541 10.5644C5.8694 10.5467 5.85953 10.5307 5.84654 10.5174C5.83355 10.5042 5.81779 10.4942 5.80043 10.488C5.78308 10.4819 5.76458 10.4799 5.74635 10.4821C5.61144 10.4821 5.49002 10.4821 5.49002 10.6194L5.35511 14.2998L5.49002 16.6618C5.49002 16.7991 5.62493 16.7991 5.74635 16.7991C5.76458 16.8013 5.78308 16.7993 5.80043 16.7932C5.81779 16.7871 5.83355 16.777 5.84654 16.7638C5.85953 16.7506 5.8694 16.7345 5.87541 16.7169C5.88143 16.6992 5.88342 16.6804 5.88125 16.6618L6.01616 14.2998ZM6.50183 16.7991C6.63674 16.7991 6.75815 16.7991 6.75815 16.6618L6.89306 14.2998L6.75815 9.69934C6.69014 9.62576 6.59992 9.57743 6.50183 9.56202L6.36692 9.69934L6.23201 14.2998L6.36692 16.6618C6.36475 16.6804 6.36675 16.6992 6.37276 16.7169C6.37877 16.7345 6.38865 16.7506 6.40163 16.7638C6.41462 16.777 6.43039 16.7871 6.44774 16.7932C6.4651 16.7993 6.48359 16.8013 6.50183 16.7991ZM7.36524 9.1775C7.23033 9.1775 7.23033 9.31483 7.23033 9.43842L7.09542 14.2998L7.23033 16.6618C7.23033 16.7991 7.23033 16.7991 7.36524 16.7991C7.50015 16.7991 7.62156 16.7991 7.62156 16.6618L7.75647 14.2998L7.62156 9.43842C7.61553 9.37129 7.58659 9.30844 7.53976 9.26077C7.49294 9.2131 7.43119 9.18364 7.36524 9.1775ZM8.32308 16.7991C8.45799 16.7991 8.57941 16.7991 8.57941 16.6618L8.71432 14.2998L8.57941 9.16377C8.57941 9.02644 8.4445 9.02644 8.32308 9.02644C8.20167 9.02644 8.06676 9.02644 8.06676 9.16377L7.93185 14.2998L8.06676 16.6618C8.05327 16.7991 8.18818 16.7991 8.32308 16.7991ZM9.22697 16.7991C9.29291 16.793 9.35466 16.7635 9.40149 16.7159C9.44832 16.6682 9.47726 16.6053 9.48329 16.5382L9.6182 14.2998L9.48329 9.3011C9.48329 9.2319 9.45629 9.16553 9.40822 9.1166C9.36015 9.06766 9.29495 9.04017 9.22697 9.04017C9.15899 9.04017 9.09379 9.06766 9.04572 9.1166C8.99765 9.16553 8.97064 9.2319 8.97064 9.3011L8.83573 14.2998L8.97064 16.5382C8.97667 16.6053 9.00562 16.6682 9.05244 16.7159C9.09927 16.7635 9.16102 16.793 9.22697 16.7991ZM10.5086 14.2998L10.3737 9.56202C10.3737 9.52775 10.3671 9.49382 10.3542 9.46217C10.3413 9.43051 10.3224 9.40175 10.2986 9.37752C10.2748 9.35329 10.2465 9.33407 10.2155 9.32096C10.1844 9.30784 10.151 9.3011 10.1174 9.3011C10.0837 9.3011 10.0504 9.30784 10.0193 9.32096C9.98817 9.33407 9.95991 9.35329 9.93611 9.37752C9.91231 9.40175 9.89343 9.43051 9.88055 9.46217C9.86766 9.49382 9.86103 9.52775 9.86103 9.56202L9.72613 14.2998L9.86103 16.5382C9.86103 16.5725 9.86766 16.6064 9.88055 16.6381C9.89343 16.6697 9.91231 16.6985 9.93611 16.7227C9.95991 16.7469 9.98817 16.7662 10.0193 16.7793C10.0504 16.7924 10.0837 16.7991 10.1174 16.7991C10.151 16.7991 10.1844 16.7924 10.2155 16.7793C10.2465 16.7662 10.2748 16.7469 10.2986 16.7227C10.3224 16.6985 10.3413 16.6697 10.3542 16.6381C10.3671 16.6064 10.3737 16.5725 10.3737 16.5382L10.5086 14.2998ZM11.0347 16.7991C11.1007 16.793 11.1624 16.7635 11.2093 16.7159C11.2561 16.6682 11.285 16.6053 11.2911 16.5382L11.426 14.2998L11.2911 8.65566C11.2911 8.58646 11.2641 8.52009 11.216 8.47116C11.1679 8.42223 11.1027 8.39474 11.0347 8.39474C10.9668 8.39474 10.9016 8.42223 10.8535 8.47116C10.8054 8.52009 10.7784 8.58646 10.7784 8.65566L10.6435 14.3135L10.7784 16.5519C10.7873 16.6166 10.8176 16.6763 10.8641 16.7212C10.9107 16.7661 10.9708 16.7935 11.0347 16.7991ZM11.9386 7.85917C11.8727 7.86531 11.8109 7.89477 11.7641 7.94243C11.7173 7.9901 11.6883 8.05296 11.6823 8.12009L11.5474 14.2998L11.6823 16.5382C11.6823 16.6074 11.7093 16.6738 11.7574 16.7227C11.8054 16.7716 11.8706 16.7991 11.9386 16.7991C12.0066 16.7991 12.0718 16.7716 12.1199 16.7227C12.1679 16.6738 12.1949 16.6074 12.1949 16.5382L12.3298 14.2998L12.1949 8.12009C12.1889 8.05296 12.16 7.9901 12.1131 7.94243C12.0663 7.89477 12.0046 7.86531 11.9386 7.85917ZM12.8425 16.7991H20.2085C20.5498 16.7991 20.8877 16.7305 21.2028 16.5971C21.518 16.4638 21.8041 16.2683 22.0448 16.022C22.2855 15.7757 22.476 15.4834 22.6054 15.162C22.7348 14.8405 22.8005 14.4961 22.7987 14.1487C22.8095 13.7943 22.7507 13.4412 22.6257 13.1102C22.5007 12.7793 22.312 12.477 22.0708 12.2212C21.8295 11.9654 21.5405 11.7612 21.2207 11.6206C20.901 11.4799 20.5568 11.4057 20.2085 11.4022C19.8566 11.3735 19.5027 11.4203 19.1697 11.5395C19.0508 10.3614 18.5112 9.26869 17.6532 8.46876C16.7953 7.66883 15.6787 7.21735 14.5154 7.2C13.9047 7.21292 13.2977 7.30053 12.7076 7.46092C12.5727 7.59825 12.4513 7.59824 12.4513 7.85917V16.5382C12.4513 16.6755 12.5862 16.7991 12.8425 16.7991Z" fill="white"/>
</svg>
