<svg width="20" height="20" viewBox="0 0 20 20" fill="none" xmlns="http://www.w3.org/2000/svg">
<g clip-path="url(#clip0_18_50)">
<path d="M10 0C4.47727 0 0 4.47682 0 10C0 15.5232 4.47727 20 10 20C15.5227 20 20 15.5232 20 10C20 4.47682 15.5227 0 10 0ZM14.8788 14.4156C14.7182 14.7 14.4227 14.86 14.1182 14.86C13.9758 14.86 13.8288 14.8244 13.6939 14.7494C12.4455 14.0494 11.0849 13.6206 9.64698 13.475C8.20607 13.3306 6.78333 13.4768 5.41667 13.9132C4.96061 14.0588 4.4697 13.8068 4.32425 13.35C4.17728 12.8924 4.4303 12.4032 4.88788 12.2568C6.48182 11.7476 8.14393 11.5744 9.82272 11.745C11.4985 11.9156 13.0864 12.4156 14.5439 13.2326C14.9636 13.4662 15.1136 13.9962 14.8788 14.4156ZM16.0758 11.3782C15.9212 11.6756 15.6182 11.8462 15.3045 11.8462C15.1682 11.8462 15.0318 11.815 14.903 11.7476C13.3682 10.9482 11.7106 10.4532 9.97272 10.2768C8.2212 10.0976 6.48637 10.2538 4.81364 10.7362C4.35152 10.8674 3.8697 10.6032 3.73789 10.1412C3.60455 9.68 3.87121 9.19818 4.33181 9.065C6.21969 8.52061 8.17727 8.34621 10.1485 8.54621C12.1061 8.74561 13.9758 9.30318 15.7076 10.2056C16.1318 10.4276 16.2985 10.9524 16.0758 11.3782ZM16.5091 8.85121C16.3788 8.85121 16.247 8.82182 16.1212 8.76C14.3 7.85182 12.3409 7.28621 10.297 7.07879C8.24999 6.86939 6.21364 7.03121 4.24242 7.55758C3.77879 7.68061 3.30303 7.40561 3.17879 6.94121C3.05454 6.47742 3.33031 6.00061 3.79546 5.87682C5.9697 5.29621 8.21818 5.11939 10.4742 5.34879C12.7273 5.57682 14.8879 6.20121 16.897 7.20318C17.3273 7.41742 17.5015 7.94 17.2879 8.3694C17.1364 8.675 16.8288 8.85121 16.5091 8.85121Z" fill="white"/>
</g>
<defs>
<clipPath id="clip0_18_50">
<rect width="20" height="20" fill="white"/>
</clipPath>
</defs>
</svg>
