<svg width="28" height="28" viewBox="0 0 28 28" fill="none" xmlns="http://www.w3.org/2000/svg">
<path d="M27.4233 7.26753C27.1004 6.06819 26.1547 5.12256 24.9554 4.79966C22.7643 4.2 13.9999 4.2 13.9999 4.2C13.9999 4.2 5.23556 4.2 3.04447 4.7766C1.8682 5.0995 0.899502 6.06819 0.576604 7.26753C0 9.45862 0 14.0023 0 14.0023C0 14.0023 0 18.569 0.576604 20.737C0.899502 21.9363 1.84513 22.882 3.04447 23.2049C5.25863 23.8045 13.9999 23.8045 13.9999 23.8045C13.9999 23.8045 22.7643 23.8045 24.9554 23.2279C26.1547 22.905 27.1004 21.9594 27.4233 20.7601C27.9999 18.569 27.9999 14.0253 27.9999 14.0253C27.9999 14.0253 28.0229 9.45862 27.4233 7.26753Z" fill="white"/>
<path d="M11.2092 18.1999L18.4975 14.0022L11.2092 9.80457V18.1999Z" fill="#8242DC"/>
</svg>
