<svg width="77" height="88" viewBox="0 0 77 88" fill="none" xmlns="http://www.w3.org/2000/svg">
<path d="M75.2163 44.8492C75.1236 44.2464 74.8057 43.6964 74.3333 43.3268L72.8718 42.1784C72.5584 41.932 72.3332 41.5888 72.2228 41.1972C71.5296 38.6276 68.598 28.5076 64.9113 26.1184C64.9113 26.1184 59.1099 9.0332 56.4387 8.9188C56.4387 8.9188 57.8869 14.0052 57.5336 16.4032C57.5336 16.4032 51.9617 3.0228 41.0519 0.9636C40.7429 0.901999 40.425 0.853599 40.1071 0.813999C40.1071 0.813999 38.6369 0.567599 36.9635 0.8008C36.6103 0.8448 36.2659 0.897599 35.926 0.9636C25.0029 3.0272 19.431 16.4076 19.431 16.4076C19.0778 14.0096 20.526 8.9232 20.526 8.9232C17.8504 9.0376 12.0533 26.1228 12.0533 26.1228C8.36226 28.512 5.43061 38.632 4.74185 41.2016C4.63589 41.5976 4.4063 41.9364 4.09283 42.1828L2.63142 43.3312C2.15458 43.7052 1.84111 44.2508 1.74839 44.8536C-0.211933 57.2352 3.57625 64.438 5.21427 66.88C5.63812 67.5092 6.02224 68.1604 6.41519 68.8072C7.91634 71.28 10.3358 71.5352 11.4043 71.5132C11.7619 71.5044 12.0975 71.6804 12.3226 71.9664C20.0491 81.8356 29.1134 84.4888 29.1134 84.4888L36.522 87.0144C37.1622 87.23 37.8201 87.34 38.4823 87.34C39.1446 87.34 39.8069 87.2344 40.4427 87.0144L47.8513 84.4888C47.8513 84.4888 56.9155 81.84 64.642 71.9664C64.8672 71.6848 65.2027 71.5088 65.5604 71.5132C66.6288 71.5352 69.0527 71.28 70.5495 68.8072C70.9424 68.156 71.331 67.5092 71.7504 66.88C73.3884 64.4336 77.1722 57.2308 75.2163 44.8492ZM68.2492 41.4964C68.0902 40.9552 63.7943 33.0616 63.7943 33.0616C63.2336 27.698 61.7854 20.3896 61.7854 20.3896C65.0791 24.9964 68.1565 40.9948 68.2492 41.4964ZM69.6797 47.85C69.7768 47.9688 69.8475 48.1096 69.8872 48.2592C70.2493 49.742 70.1521 52.6944 70.1521 52.6944C70.1521 52.14 69.6444 50.6176 69.4457 50.05C69.3971 49.9136 69.3221 49.786 69.2205 49.676C66.6597 47.0536 57.9972 40.5944 57.9972 40.5944L59.1099 36.0272C61.9841 38.4472 68.6466 46.5828 69.6797 47.85ZM62.7656 32.8812C61.2821 32.8064 59.0304 34.452 59.0304 34.452C59.1805 20.1476 57.6175 11.4136 57.6175 11.4136C60.1695 13.4772 62.3417 27.544 62.7656 32.8812ZM19.3339 11.4136C19.3339 11.4136 17.7753 20.1476 17.921 34.452C17.921 34.452 15.6737 32.8064 14.1858 32.8812C14.6141 27.544 16.7908 13.4772 19.3339 11.4136ZM18.963 40.5944C18.963 40.5944 10.3005 47.0536 7.73973 49.676C7.63818 49.7816 7.55871 49.9092 7.51456 50.05C7.32029 50.6176 6.80814 52.14 6.80814 52.6944C6.80814 52.6944 6.711 49.742 7.07304 48.2592C7.10836 48.1052 7.17901 47.9688 7.28056 47.85C8.30928 46.5872 14.9761 38.4516 17.8504 36.0316L18.963 40.5944ZM15.1748 20.3896C15.1748 20.3896 13.7267 27.6936 13.1659 33.0616C13.1659 33.0616 8.87001 40.9596 8.71106 41.4964C8.80378 40.9948 11.8767 24.9964 15.1748 20.3896ZM5.99575 63.558C5.99575 63.558 2.48572 53.5304 4.91846 43.736C5.13921 42.8296 5.72201 42.0508 6.51232 41.5844C6.95825 41.3204 7.47482 41.0476 7.96049 40.8848C7.96049 40.8848 4.82574 46.7764 6.477 58.6916C6.477 58.6916 7.51897 65.0848 10.9363 70.4132C10.9363 70.4088 9.82809 71.9268 5.99575 63.558ZM8.40641 61.314C8.40641 61.314 9.89432 67.5532 20.1507 71.5836L19.8328 75.5392C19.8372 75.5436 8.33136 68.9964 8.40641 61.314ZM12.433 70.7652C12.7553 71.0292 17.9034 75.3456 19.5546 76.1552C19.5546 76.1552 21.9918 79.1076 22.1552 79.4244C21.9918 79.332 16.5303 76.4192 12.433 70.7652ZM20.3759 76.1508L20.8439 71.7464C22.3847 75.2664 23.1265 79.618 23.5194 80.0668L20.3759 76.1508ZM30.226 64.2576C27.8507 65.34 24.866 65.1684 22.919 64.878C21.228 64.6272 19.6606 63.8176 18.4685 62.568C16.5082 60.5132 14.9011 57.6884 14.3801 56.7292C14.2609 56.5136 14.3006 56.2496 14.4728 56.0692C14.7112 55.8184 15.0247 55.5632 15.3823 55.3036C17.453 53.8076 19.952 53.0552 22.4863 53.0552H22.7468C23.8726 53.0552 24.9544 53.5524 25.6696 54.4456C27.7447 57.0196 29.864 61.9652 30.513 63.5272C30.6278 63.8088 30.4998 64.13 30.226 64.2576ZM39.0607 48.29C38.8753 48.3648 38.6766 48.4088 38.4779 48.4088C38.2837 48.4088 38.085 48.3692 37.8951 48.29C35.1886 47.1548 23.7843 42.3588 20.5701 40.8408C20.0624 40.5988 19.6827 40.15 19.5193 39.5956C18.9277 37.5936 17.8327 31.7724 19.25 18.5152C19.3074 17.9916 19.4575 17.4856 19.7003 17.0236C21.0558 14.4496 25.9654 5.7596 32.3674 2.552C32.4424 2.5124 32.5175 2.4816 32.5881 2.442C32.7603 2.354 32.9413 2.2792 33.1179 2.2044C33.9877 1.826 34.9326 1.5356 35.9392 1.3596C37.4139 1.1 38.915 1.056 40.3985 1.2584C40.606 1.2848 40.8091 1.32 41.0166 1.3596C42.0189 1.5356 42.9637 1.8304 43.8379 2.2044C44.0189 2.2792 44.1955 2.3584 44.3677 2.442C44.4428 2.4816 44.5178 2.5124 44.5885 2.552C50.9904 5.7596 55.9 14.4496 57.2511 17.0192C57.4939 17.4812 57.644 17.9872 57.7014 18.5108C59.1143 31.768 58.0237 37.5892 57.4321 39.5912C57.2687 40.1456 56.8935 40.5944 56.3813 40.8364C53.1715 42.3588 41.7672 47.1504 39.0607 48.29ZM46.7298 64.2576C46.4561 64.1344 46.328 63.8132 46.4428 63.5316C47.0874 61.9696 49.2111 57.024 51.2862 54.45C52.0015 53.5568 53.0832 53.0596 54.2091 53.0596H54.4695C57.0038 53.0596 59.5028 53.8076 61.5735 55.308C61.9355 55.5676 62.249 55.8272 62.483 56.0736C62.6508 56.254 62.6905 56.518 62.5757 56.7336C62.0548 57.6928 60.4432 60.5176 58.4873 62.5724C57.2952 63.822 55.7279 64.6316 54.0369 64.8824C52.0898 65.1684 49.1052 65.3356 46.7298 64.2576ZM56.1164 71.7464L56.5844 76.1508L53.4408 80.0668C53.8338 79.6224 54.5755 75.2708 56.1164 71.7464ZM54.8007 79.42C54.964 79.1032 57.4012 76.1508 57.4012 76.1508C59.0569 75.3412 64.2049 71.0292 64.5228 70.7608C60.4256 76.4192 54.9685 79.332 54.8007 79.42ZM57.123 75.5436L56.8052 71.588C67.0615 67.5532 68.5494 61.3184 68.5494 61.3184C68.6245 68.9964 57.123 75.5436 57.123 75.5436ZM70.9601 63.558C67.1277 71.9268 66.0195 70.4088 66.0195 70.4088C69.4413 65.0848 70.4788 58.6872 70.4788 58.6872C72.1257 46.772 68.9953 40.8804 68.9953 40.8804C69.481 41.0432 69.9976 41.3116 70.4435 41.58C71.2338 42.0508 71.8122 42.8296 72.0374 43.7316C74.4701 53.5304 70.9601 63.558 70.9601 63.558Z" fill="white"/>
</svg>
